<svg xmlns="http://www.w3.org/2000/svg" width="768" height="2304" viewBox="0 0 768 2304"><defs><linearGradient id="steel"><stop stop-color="#A1B2C3"/><stop offset=".43" stop-color="#E2EAF1"/><stop offset="1" stop-color="#8B9DAF"/></linearGradient></defs><style>text{font-family:"Microsoft JhengHei",sans-serif}</style><rect x="0" y="0" width="768" height="2304" rx="0" fill="white" stroke="none" stroke-width="2"/><text x="28" y="58" font-size="40" fill="#172B43" font-weight="800" text-anchor="start">Dinomaly：</text><text x="28" y="110" font-size="40" fill="#172B43" font-weight="800" text-anchor="start">多类正常，共用重建路徑</text><text x="28" y="165" font-size="26" fill="#526B81" font-weight="500" text-anchor="start">工程圖解｜教學示意，非模型實測</text><g transform="translate(50,195.0) scale(1.24)"><rect x="0" y="0" width="510" height="500" rx="17" fill="#F5F9FF" stroke="#B9D4EF" stroke-width="2"/><rect x="15" y="13" width="480" height="43" rx="12" fill="#1765CA" stroke="#1765CA" stroke-width="2"/><text x="255.0" y="43" font-size="26" fill="white" font-weight="700" text-anchor="middle">三種產品的正常資料</text><g transform="translate(8,66) scale(0.965)"><g transform="translate(10,15) scale(0.4)"><rect x="0" y="0" width="350" height="225" rx="8" fill="url(#steel)" stroke="#748A9C" stroke-width="2"/><circle cx="68" cy="65" r="35" fill="white" stroke="#748A9C" stroke-width="3"/><circle cx="282" cy="181" r="22" fill="white" stroke="#748A9C" stroke-width="3"/><circle cx="13" cy="13" r="3" fill="#748A9C" stroke="#748A9C" stroke-width="3"/><circle cx="337" cy="13" r="3" fill="#748A9C" stroke="#748A9C" stroke-width="3"/><circle cx="13" cy="212" r="3" fill="#748A9C" stroke="#748A9C" stroke-width="3"/><circle cx="337" cy="212" r="3" fill="#748A9C" stroke="#748A9C" stroke-width="3"/></g><rect x="190" y="25" width="105" height="75" rx="5" fill="#4385B8" stroke="#1765CA" stroke-width="2"/><rect x="345" y="25" width="110" height="75" rx="3" fill="#ECF0EB" stroke="#AEBBBB" stroke-width="2"/><text x="10" y="147" font-size="25" fill="#1765CA" font-weight="700" text-anchor="start">金屬板</text><text x="187" y="147" font-size="25" fill="#1765CA" font-weight="700" text-anchor="start">連接器</text><text x="340" y="147" font-size="25" fill="#1765CA" font-weight="700" text-anchor="start">陶瓷板</text><line x1="235" y1="180" x2="235" y2="220" stroke="#1765CA" stroke-width="5"/><polygon points="235.0,220.0 242.0,206.0 228.0,206.0" fill="#1765CA"/><rect x="30" y="250" width="420" height="43" rx="12" fill="#1765CA" stroke="#1765CA" stroke-width="2"/><text x="240.0" y="280" font-size="26" fill="white" font-weight="700" text-anchor="middle">多類正常 → 共用模型</text><text x="15" y="350" font-size="29" fill="#172B43" font-weight="700" text-anchor="start">三種產品只收確認正常</text><text x="15" y="397" font-size="27" fill="#172B43" font-weight="500" text-anchor="start">產品切分保留獨立驗證</text></g></g><line x1="384.0" y1="818.0" x2="384.0" y2="835.0" stroke="#1765CA" stroke-width="5"/><polygon points="384.0,835.0 391.0,821.0 377.0,821.0" fill="#1765CA"/><g transform="translate(50,838.0) scale(1.24)"><rect x="0" y="0" width="510" height="500" rx="17" fill="#F5F9FF" stroke="#B9D4EF" stroke-width="2"/><rect x="15" y="13" width="480" height="43" rx="12" fill="#1765CA" stroke="#1765CA" stroke-width="2"/><text x="255.0" y="43" font-size="26" fill="white" font-weight="700" text-anchor="middle">固定骨幹，更新重建路徑</text><g transform="translate(8,66) scale(0.965)"><g transform="translate(15,15) scale(0.43)"><rect x="0" y="0" width="350" height="225" rx="8" fill="url(#steel)" stroke="#748A9C" stroke-width="2"/><circle cx="68" cy="65" r="35" fill="white" stroke="#748A9C" stroke-width="3"/><circle cx="282" cy="181" r="22" fill="white" stroke="#748A9C" stroke-width="3"/><circle cx="13" cy="13" r="3" fill="#748A9C" stroke="#748A9C" stroke-width="3"/><circle cx="337" cy="13" r="3" fill="#748A9C" stroke="#748A9C" stroke-width="3"/><circle cx="13" cy="212" r="3" fill="#748A9C" stroke="#748A9C" stroke-width="3"/><circle cx="337" cy="212" r="3" fill="#748A9C" stroke="#748A9C" stroke-width="3"/></g><line x1="180" y1="66" x2="220" y2="66" stroke="#1765CA" stroke-width="5"/><polygon points="220.0,66.0 206.0,59.0 206.0,73.0" fill="#1765CA"/><rect x="230" y="42" width="230" height="43" rx="12" fill="#1765CA" stroke="#1765CA" stroke-width="2"/><text x="345.0" y="72" font-size="26" fill="white" font-weight="700" text-anchor="middle">固定DINOv2</text><line x1="330" y1="98" x2="330" y2="136" stroke="#1765CA" stroke-width="5"/><polygon points="330.0,136.0 337.0,122.0 323.0,122.0" fill="#1765CA"/><rect x="20" y="160" width="440" height="43" rx="12" fill="#1765CA" stroke="#1765CA" stroke-width="2"/><text x="240.0" y="190" font-size="26" fill="white" font-weight="700" text-anchor="middle">可訓練MLP＋線性注意力解碼</text><text x="35" y="274" font-size="29" fill="#238854" font-weight="700" text-anchor="start">原正常特徵 → 重建目標</text><text x="15" y="350" font-size="29" fill="#172B43" font-weight="700" text-anchor="start">更新重建部分，不更新骨幹</text><text x="15" y="397" font-size="27" fill="#172B43" font-weight="500" text-anchor="start">分組比較与難位置訓練配套</text></g></g><line x1="384.0" y1="1461.0" x2="384.0" y2="1478.0" stroke="#1765CA" stroke-width="5"/><polygon points="384.0,1478.0 391.0,1464.0 377.0,1464.0" fill="#1765CA"/><g transform="translate(50,1481.0) scale(1.24)"><rect x="0" y="0" width="510" height="500" rx="17" fill="#F5F9FF" stroke="#B9D4EF" stroke-width="2"/><rect x="15" y="13" width="480" height="43" rx="12" fill="#1765CA" stroke="#1765CA" stroke-width="2"/><text x="255.0" y="43" font-size="26" fill="white" font-weight="700" text-anchor="middle">位置差異交原圖覆核</text><g transform="translate(8,66) scale(0.965)"><rect x="20.0" y="50.0" width="35.5" height="35.5" rx="1" fill="#E3EEF9" stroke="#1765CA" stroke-width="2"/><rect x="57.5" y="50.0" width="35.5" height="35.5" rx="1" fill="#E3EEF9" stroke="#1765CA" stroke-width="2"/><rect x="95.0" y="50.0" width="35.5" height="35.5" rx="1" fill="#E3EEF9" stroke="#1765CA" stroke-width="2"/><rect x="132.5" y="50.0" width="35.5" height="35.5" rx="1" fill="#E3EEF9" stroke="#1765CA" stroke-width="2"/><rect x="20.0" y="87.5" width="35.5" height="35.5" rx="1" fill="#E3EEF9" stroke="#1765CA" stroke-width="2"/><rect x="57.5" y="87.5" width="35.5" height="35.5" rx="1" fill="#E3EEF9" stroke="#1765CA" stroke-width="2"/><rect x="95.0" y="87.5" width="35.5" height="35.5" rx="1" fill="#E3EEF9" stroke="#1765CA" stroke-width="2"/><rect x="132.5" y="87.5" width="35.5" height="35.5" rx="1" fill="#E3EEF9" stroke="#1765CA" stroke-width="2"/><rect x="20.0" y="125.0" width="35.5" height="35.5" rx="1" fill="#E3EEF9" stroke="#1765CA" stroke-width="2"/><rect x="57.5" y="125.0" width="35.5" height="35.5" rx="1" fill="#E3EEF9" stroke="#1765CA" stroke-width="2"/><rect x="95.0" y="125.0" width="35.5" height="35.5" rx="1" fill="#E3EEF9" stroke="#1765CA" stroke-width="2"/><rect x="132.5" y="125.0" width="35.5" height="35.5" rx="1" fill="#CE7917" stroke="#1765CA" stroke-width="2"/><rect x="20.0" y="162.5" width="35.5" height="35.5" rx="1" fill="#E3EEF9" stroke="#1765CA" stroke-width="2"/><rect x="57.5" y="162.5" width="35.5" height="35.5" rx="1" fill="#E3EEF9" stroke="#1765CA" stroke-width="2"/><rect x="95.0" y="162.5" width="35.5" height="35.5" rx="1" fill="#E3EEF9" stroke="#1765CA" stroke-width="2"/><rect x="132.5" y="162.5" width="35.5" height="35.5" rx="1" fill="#E3EEF9" stroke="#1765CA" stroke-width="2"/><line x1="188" y1="128" x2="235" y2="128" stroke="#1765CA" stroke-width="5"/><polygon points="235.0,128.0 221.0,121.0 221.0,135.0" fill="#1765CA"/><g transform="translate(260,45) scale(0.57)"><rect x="0" y="0" width="350" height="225" rx="8" fill="url(#steel)" stroke="#748A9C" stroke-width="2"/><circle cx="68" cy="65" r="35" fill="white" stroke="#748A9C" stroke-width="3"/><circle cx="282" cy="181" r="22" fill="white" stroke="#748A9C" stroke-width="3"/><circle cx="13" cy="13" r="3" fill="#748A9C" stroke="#748A9C" stroke-width="3"/><circle cx="337" cy="13" r="3" fill="#748A9C" stroke="#748A9C" stroke-width="3"/><circle cx="13" cy="212" r="3" fill="#748A9C" stroke="#748A9C" stroke-width="3"/><circle cx="337" cy="212" r="3" fill="#748A9C" stroke="#748A9C" stroke-width="3"/><line x1="266" y1="133" x2="300" y2="103" stroke="#34424B" stroke-width="6"/><line x1="260" y1="142" x2="286" y2="122" stroke="#EDF2F6" stroke-width="3"/><rect x="247" y="94" width="65" height="58" rx="0" fill="none" stroke="#CE7917" stroke-width="2"/><text x="318" y="124" font-size="31" fill="#CE7917" font-weight="700" text-anchor="start">p</text></g><text x="20" y="274" font-size="29" fill="#1765CA" font-weight="700" text-anchor="start">位置圖＋原圖＋影像分數</text><text x="15" y="350" font-size="29" fill="#172B43" font-weight="700" text-anchor="start">分數供回查原位置p</text><text x="15" y="397" font-size="27" fill="#172B43" font-weight="500" text-anchor="start">允收規則與尺寸判定另外定義</text></g></g><rect x="24" y="2124" width="720" height="150" rx="15" fill="#FFF4CC" stroke="#EAB24B" stroke-width="2"/><circle cx="58" cy="2164" r="15" fill="#FFE5A2" stroke="#D99B23" stroke-width="3"/><rect x="50" y="2180" width="16" height="10" rx="2" fill="#D99B23" stroke="none" stroke-width="2"/><text x="89" y="2176" font-size="31" fill="#172B43" font-weight="800" text-anchor="start">共同訓練仍需逐產品驗證。</text></svg>