<svg xmlns="http://www.w3.org/2000/svg" width="768" height="2304" viewBox="0 0 768 2304"><defs><linearGradient id="steel"><stop stop-color="#A1B2C3"/><stop offset=".43" stop-color="#E2EAF1"/><stop offset="1" stop-color="#8B9DAF"/></linearGradient></defs><style>text{font-family:"Microsoft JhengHei",sans-serif}</style><rect x="0" y="0" width="768" height="2304" rx="0" fill="white" stroke="none" stroke-width="2"/><text x="28" y="58" font-size="40" fill="#172B43" font-weight="800" text-anchor="start">CLIP 與 SigLIP：</text><text x="28" y="110" font-size="40" fill="#172B43" font-weight="800" text-anchor="start">訓練不同，選型同題</text><text x="28" y="165" font-size="26" fill="#526B81" font-weight="500" text-anchor="start">工程圖解｜教學示意，非模型實測</text><g transform="translate(50,195.0) scale(1.24)"><rect x="0" y="0" width="510" height="500" rx="17" fill="#F5F9FF" stroke="#B9D4EF" stroke-width="2"/><rect x="15" y="13" width="480" height="43" rx="12" fill="#1765CA" stroke="#1765CA" stroke-width="2"/><text x="255.0" y="43" font-size="26" fill="white" font-weight="700" text-anchor="middle">CLIP：行列間比較正配對</text><g transform="translate(8,66) scale(0.965)"><text x="158" y="29" font-size="25" fill="#172B43" font-weight="500" text-anchor="start">支架詞</text><text x="325" y="29" font-size="25" fill="#172B43" font-weight="500" text-anchor="start">齒輪詞</text><g transform="translate(8,78) scale(0.38)"><path d="M0,0 H95 L120,35 H250 V160 H0 Z" fill="url(#steel)" stroke="#73899E" stroke-width="4"/><circle cx="60" cy="102" r="24" fill="#F5F9FF" stroke="#73899E" stroke-width="3"/><circle cx="190" cy="102" r="24" fill="#F5F9FF" stroke="#73899E" stroke-width="3"/><line x1="14" y1="18" x2="75" y2="18" stroke="#FFFFFF" stroke-width="6"/></g><g transform="translate(8,226) scale(0.48)"><polygon points="190.0,100.0 189.2,111.7 170.5,118.9 167.4,127.9 177.9,145.0 171.4,154.8 151.6,151.6 144.4,157.9 145.0,177.9 134.4,183.1 118.9,170.5 109.5,172.4 100.0,190.0 88.3,189.2 81.1,170.5 72.1,167.4 55.0,177.9 45.2,171.4 48.4,151.6 42.1,144.4 22.1,145.0 16.9,134.4 29.5,118.9 27.6,109.5 10.0,100.0 10.8,88.3 29.5,81.1 32.6,72.1 22.1,55.0 28.6,45.2 48.4,48.4 55.6,42.1 55.0,22.1 65.6,16.9 81.1,29.5 90.5,27.6 100.0,10.0 111.7,10.8 118.9,29.5 127.9,32.6 145.0,22.1 154.8,28.6 151.6,48.4 157.9,55.6 177.9,55.0 183.1,65.6 170.5,81.1 172.4,90.5" fill="url(#steel)" stroke="#73899E" stroke-width="3"/><circle cx="100" cy="100" r="30" fill="#F5F9FF" stroke="#73899E" stroke-width="3"/></g><rect x="155" y="65" width="125" height="100" rx="4" fill="#A6C9EE" stroke="#1765CA" stroke-width="2"/><text x="217" y="125" font-size="24" fill="#1765CA" font-weight="600" text-anchor="middle">正配對</text><rect x="320" y="65" width="125" height="100" rx="4" fill="#E8EFF8" stroke="#B9D4EF" stroke-width="2"/><text x="382" y="125" font-size="24" fill="#1765CA" font-weight="600" text-anchor="middle">其他</text><rect x="155" y="210" width="125" height="100" rx="4" fill="#E8EFF8" stroke="#B9D4EF" stroke-width="2"/><text x="217" y="270" font-size="24" fill="#1765CA" font-weight="600" text-anchor="middle">其他</text><rect x="320" y="210" width="125" height="100" rx="4" fill="#A6C9EE" stroke="#1765CA" stroke-width="2"/><text x="382" y="270" font-size="24" fill="#1765CA" font-weight="600" text-anchor="middle">正配對</text><line x1="160" y1="181" x2="438" y2="181" stroke="#1765CA" stroke-width="3"/><polygon points="438.0,181.0 424.0,174.0 424.0,188.0" fill="#1765CA"/><line x1="299" y1="69" x2="299" y2="302" stroke="#1765CA" stroke-width="3"/><polygon points="299.0,302.0 306.0,288.0 292.0,288.0" fill="#1765CA"/><text x="15" y="362" font-size="26" fill="#172B43" font-weight="500" text-anchor="start">每行與每列各做 softmax</text><text x="15" y="412" font-size="26" fill="#172B43" font-weight="500" text-anchor="start">正配對與同批其他項比較</text></g></g><g transform="translate(50,838.0) scale(1.24)"><rect x="0" y="0" width="510" height="500" rx="17" fill="#F5F9FF" stroke="#B9D4EF" stroke-width="2"/><rect x="15" y="13" width="480" height="43" rx="12" fill="#1765CA" stroke="#1765CA" stroke-width="2"/><text x="255.0" y="43" font-size="26" fill="white" font-weight="700" text-anchor="middle">SigLIP：逐對給學習訊號</text><g transform="translate(8,66) scale(0.965)"><text x="160" y="30" font-size="25" fill="#1765CA" font-weight="500" text-anchor="start">支架詞</text><text x="305" y="30" font-size="25" fill="#CE7917" font-weight="500" text-anchor="start">齒輪詞</text><g transform="translate(0,65) scale(0.37)"><path d="M0,0 H95 L120,35 H250 V160 H0 Z" fill="url(#steel)" stroke="#73899E" stroke-width="4"/><circle cx="60" cy="102" r="24" fill="#F5F9FF" stroke="#73899E" stroke-width="3"/><circle cx="190" cy="102" r="24" fill="#F5F9FF" stroke="#73899E" stroke-width="3"/><line x1="14" y1="18" x2="75" y2="18" stroke="#FFFFFF" stroke-width="6"/></g><g transform="translate(0,220) scale(0.47)"><polygon points="190.0,100.0 189.2,111.7 170.5,118.9 167.4,127.9 177.9,145.0 171.4,154.8 151.6,151.6 144.4,157.9 145.0,177.9 134.4,183.1 118.9,170.5 109.5,172.4 100.0,190.0 88.3,189.2 81.1,170.5 72.1,167.4 55.0,177.9 45.2,171.4 48.4,151.6 42.1,144.4 22.1,145.0 16.9,134.4 29.5,118.9 27.6,109.5 10.0,100.0 10.8,88.3 29.5,81.1 32.6,72.1 22.1,55.0 28.6,45.2 48.4,48.4 55.6,42.1 55.0,22.1 65.6,16.9 81.1,29.5 90.5,27.6 100.0,10.0 111.7,10.8 118.9,29.5 127.9,32.6 145.0,22.1 154.8,28.6 151.6,48.4 157.9,55.6 177.9,55.0 183.1,65.6 170.5,81.1 172.4,90.5" fill="url(#steel)" stroke="#73899E" stroke-width="3"/><circle cx="100" cy="100" r="30" fill="#F5F9FF" stroke="#73899E" stroke-width="3"/></g><rect x="160" y="55" width="125" height="115" rx="8" fill="#E6F2EB" stroke="#238854" stroke-width="2"/><text x="222" y="108" font-size="25" fill="#238854" font-weight="700" text-anchor="middle">配對</text><text x="222" y="145" font-size="26" fill="#238854" font-weight="600" text-anchor="middle">拉近</text><rect x="305" y="55" width="125" height="115" rx="8" fill="#FFF0DA" stroke="#CE7917" stroke-width="2"/><text x="367" y="108" font-size="25" fill="#CE7917" font-weight="700" text-anchor="middle">不配對</text><text x="367" y="145" font-size="26" fill="#CE7917" font-weight="600" text-anchor="middle">分開</text><rect x="160" y="200" width="125" height="115" rx="8" fill="#FFF0DA" stroke="#CE7917" stroke-width="2"/><text x="222" y="253" font-size="25" fill="#CE7917" font-weight="700" text-anchor="middle">不配對</text><text x="222" y="290" font-size="26" fill="#CE7917" font-weight="600" text-anchor="middle">分開</text><rect x="305" y="200" width="125" height="115" rx="8" fill="#E6F2EB" stroke="#238854" stroke-width="2"/><text x="367" y="253" font-size="25" fill="#238854" font-weight="700" text-anchor="middle">配對</text><text x="367" y="290" font-size="26" fill="#238854" font-weight="600" text-anchor="middle">拉近</text><text x="15" y="367" font-size="26" fill="#172B43" font-weight="500" text-anchor="start">每對各算 sigmoid 損失</text><text x="15" y="416" font-size="26" fill="#172B43" font-weight="500" text-anchor="start">再合併更新同一組參數</text></g></g><g transform="translate(50,1481.0) scale(1.24)"><rect x="0" y="0" width="510" height="500" rx="17" fill="#F5F9FF" stroke="#B9D4EF" stroke-width="2"/><rect x="15" y="13" width="480" height="43" rx="12" fill="#1765CA" stroke="#1765CA" stroke-width="2"/><text x="255.0" y="43" font-size="26" fill="white" font-weight="700" text-anchor="middle">部署仍用共同條件驗證</text><g transform="translate(8,66) scale(0.965)"><g transform="translate(20,35) scale(0.48)"><path d="M0,0 H95 L120,35 H250 V160 H0 Z" fill="url(#steel)" stroke="#73899E" stroke-width="4"/><circle cx="60" cy="102" r="24" fill="#F5F9FF" stroke="#73899E" stroke-width="3"/><circle cx="190" cy="102" r="24" fill="#F5F9FF" stroke="#73899E" stroke-width="3"/><line x1="14" y1="18" x2="75" y2="18" stroke="#FFFFFF" stroke-width="6"/></g><g transform="translate(195,18) scale(0.48)"><polygon points="190.0,100.0 189.2,111.7 170.5,118.9 167.4,127.9 177.9,145.0 171.4,154.8 151.6,151.6 144.4,157.9 145.0,177.9 134.4,183.1 118.9,170.5 109.5,172.4 100.0,190.0 88.3,189.2 81.1,170.5 72.1,167.4 55.0,177.9 45.2,171.4 48.4,151.6 42.1,144.4 22.1,145.0 16.9,134.4 29.5,118.9 27.6,109.5 10.0,100.0 10.8,88.3 29.5,81.1 32.6,72.1 22.1,55.0 28.6,45.2 48.4,48.4 55.6,42.1 55.0,22.1 65.6,16.9 81.1,29.5 90.5,27.6 100.0,10.0 111.7,10.8 118.9,29.5 127.9,32.6 145.0,22.1 154.8,28.6 151.6,48.4 157.9,55.6 177.9,55.0 183.1,65.6 170.5,81.1 172.4,90.5" fill="url(#steel)" stroke="#73899E" stroke-width="3"/><circle cx="100" cy="100" r="30" fill="#F5F9FF" stroke="#73899E" stroke-width="3"/></g><g transform="translate(343,18) scale(0.48)"><circle cx="100" cy="100" r="86" fill="#CED9E4" stroke="#73899E" stroke-width="3"/><circle cx="100" cy="100" r="58" fill="#F5F9FF" stroke="#73899E" stroke-width="3"/><circle cx="170.0" cy="100.0" r="8" fill="#E9EFF5" stroke="#647A91" stroke-width="3"/><circle cx="149.49747468305833" cy="149.49747468305833" r="8" fill="#E9EFF5" stroke="#647A91" stroke-width="3"/><circle cx="100.0" cy="170.0" r="8" fill="#E9EFF5" stroke="#647A91" stroke-width="3"/><circle cx="50.50252531694168" cy="149.49747468305833" r="8" fill="#E9EFF5" stroke="#647A91" stroke-width="3"/><circle cx="30.0" cy="100.00000000000001" r="8" fill="#E9EFF5" stroke="#647A91" stroke-width="3"/><circle cx="50.502525316941664" cy="50.50252531694168" r="8" fill="#E9EFF5" stroke="#647A91" stroke-width="3"/><circle cx="99.99999999999999" cy="30.0" r="8" fill="#E9EFF5" stroke="#647A91" stroke-width="3"/><circle cx="149.49747468305833" cy="50.502525316941664" r="8" fill="#E9EFF5" stroke="#647A91" stroke-width="3"/></g><text x="15" y="171" font-size="29" fill="#1765CA" font-weight="500" text-anchor="start">同資料、候選與取像</text><circle cx="30" cy="230" r="8" fill="#CE7917" stroke="#CE7917" stroke-width="3"/><text x="55" y="240" font-size="28" fill="#172B43" font-weight="500" text-anchor="start">誤配／漏掉未知件</text><circle cx="30" cy="300" r="8" fill="#1765CA" stroke="#1765CA" stroke-width="3"/><text x="55" y="310" font-size="28" fill="#172B43" font-weight="500" text-anchor="start">模型與前處理成本</text><circle cx="30" cy="370" r="8" fill="#238854" stroke="#238854" stroke-width="3"/><text x="55" y="380" font-size="28" fill="#172B43" font-weight="500" text-anchor="start">人工覆核需求</text></g></g><rect x="24" y="2124" width="720" height="150" rx="15" fill="#FFF4CC" stroke="#EAB24B" stroke-width="2"/><circle cx="58" cy="2164" r="15" fill="#FFE5A2" stroke="#D99B23" stroke-width="3"/><rect x="50" y="2180" width="16" height="10" rx="2" fill="#D99B23" stroke="none" stroke-width="2"/><text x="89" y="2176" font-size="31" fill="#172B43" font-weight="800" text-anchor="start">訓練目標不同，工作選型仍要同題驗證。</text></svg>