<svg xmlns="http://www.w3.org/2000/svg" width="1672" height="941"><defs><linearGradient id="steel"><stop offset="0" stop-color="#B4C0CC"/><stop offset=".45" stop-color="#EDF1F4"/><stop offset="1" stop-color="#8495A5"/></linearGradient></defs><style>text{font-family:"Microsoft JhengHei",sans-serif}</style><rect x="0" y="0" width="1672" height="941" rx="0" fill="white" stroke="none" stroke-width="2"/><text x="30" y="58" fill="#153454" font-size="47" font-weight="800" text-anchor="start">開放詞彙偵測：詞彙是輸入的一部分</text><text x="30" y="117" fill="#5D7184" font-size="25" font-weight="500" text-anchor="start">工程圖解｜機制示意，非本輪模型實測</text><g transform="translate(24,150) scale(1)"><rect x="0" y="0" width="510" height="560" rx="18" fill="#F8FBFF" stroke="#C1D8EF" stroke-width="2"/><text x="22" y="47" fill="#153454" font-size="29" font-weight="800" text-anchor="start">文字詞彙與預訓練</text><g transform="translate(10,68) scale(.94 .90)"><text x="45" y="70" fill="#1765CA" font-size="35" font-weight="500" text-anchor="start">螺栓</text><rect x="155" y="42" width="24" height="35" rx="0" fill="#BED8EF" stroke="white" stroke-width="2"/><rect x="184" y="42" width="24" height="35" rx="0" fill="#1765CA" stroke="white" stroke-width="2"/><rect x="213" y="42" width="24" height="35" rx="0" fill="#1765CA" stroke="white" stroke-width="2"/><rect x="242" y="42" width="24" height="35" rx="0" fill="#BED8EF" stroke="white" stroke-width="2"/><rect x="271" y="42" width="24" height="35" rx="0" fill="#1765CA" stroke="white" stroke-width="2"/><rect x="300" y="42" width="24" height="35" rx="0" fill="#1765CA" stroke="white" stroke-width="2"/><rect x="329" y="42" width="24" height="35" rx="0" fill="#BED8EF" stroke="white" stroke-width="2"/><rect x="358" y="42" width="24" height="35" rx="0" fill="#1765CA" stroke="white" stroke-width="2"/><text x="45" y="160" fill="#17876B" font-size="35" font-weight="500" text-anchor="start">墊圈</text><rect x="155" y="132" width="24" height="35" rx="0" fill="#BED8EF" stroke="white" stroke-width="2"/><rect x="184" y="132" width="24" height="35" rx="0" fill="#17876B" stroke="white" stroke-width="2"/><rect x="213" y="132" width="24" height="35" rx="0" fill="#17876B" stroke="white" stroke-width="2"/><rect x="242" y="132" width="24" height="35" rx="0" fill="#BED8EF" stroke="white" stroke-width="2"/><rect x="271" y="132" width="24" height="35" rx="0" fill="#17876B" stroke="white" stroke-width="2"/><rect x="300" y="132" width="24" height="35" rx="0" fill="#17876B" stroke="white" stroke-width="2"/><rect x="329" y="132" width="24" height="35" rx="0" fill="#BED8EF" stroke="white" stroke-width="2"/><rect x="358" y="132" width="24" height="35" rx="0" fill="#17876B" stroke="white" stroke-width="2"/><path d="M250,225 L250,290" fill="none" stroke="#1765CA" stroke-width="5" stroke-dasharray=""/><path d="M250,290 L244.345448056554,278.2941876694152 L255.654551943446,278.2941876694152 Z" fill="#1765CA"/><rect x="100" y="315" width="300" height="65" rx="16" fill="#E4EDF7" stroke="#C1D8EF" stroke-width="2"/><text x="130" y="360" fill="#153454" font-size="28" font-weight="500" text-anchor="start">詞彙表示／快取</text></g><text x="24" y="492" fill="#153454" font-size="27" font-weight="650" text-anchor="start">螺栓／墊圈等類別文字</text><text x="24" y="534" fill="#153454" font-size="27" font-weight="650" text-anchor="start">使用視覺語言預訓練能力</text></g><path d="M541,430 L573,430" fill="none" stroke="#1765CA" stroke-width="5" stroke-dasharray=""/><path d="M573,430 L561.2941876694152,435.654551943446 L561.2941876694152,424.345448056554 Z" fill="#1765CA"/><g transform="translate(581,150) scale(1)"><rect x="0" y="0" width="510" height="560" rx="18" fill="#F8FBFF" stroke="#C1D8EF" stroke-width="2"/><text x="22" y="47" fill="#153454" font-size="29" font-weight="800" text-anchor="start">區域與文字表示</text><g transform="translate(10,68) scale(.94 .90)"><text x="155" y="45" fill="#1765CA" font-size="27" font-weight="500" text-anchor="start">螺栓詞</text><text x="325" y="45" fill="#17876B" font-size="27" font-weight="500" text-anchor="start">墊圈詞</text><g transform="translate(20,70) scale(0.48)"><rect x="45" y="70" width="60" height="150" rx="7" fill="url(#steel)" stroke="#647484" stroke-width="2"/><path d="M47,89 L103,80" fill="none" stroke="#647484" stroke-width="3" stroke-dasharray=""/><path d="M47,101 L103,92" fill="none" stroke="#647484" stroke-width="3" stroke-dasharray=""/><path d="M47,113 L103,104" fill="none" stroke="#647484" stroke-width="3" stroke-dasharray=""/><path d="M47,125 L103,116" fill="none" stroke="#647484" stroke-width="3" stroke-dasharray=""/><path d="M47,137 L103,128" fill="none" stroke="#647484" stroke-width="3" stroke-dasharray=""/><path d="M47,149 L103,140" fill="none" stroke="#647484" stroke-width="3" stroke-dasharray=""/><path d="M47,161 L103,152" fill="none" stroke="#647484" stroke-width="3" stroke-dasharray=""/><path d="M47,173 L103,164" fill="none" stroke="#647484" stroke-width="3" stroke-dasharray=""/><path d="M47,185 L103,176" fill="none" stroke="#647484" stroke-width="3" stroke-dasharray=""/><path d="M47,197 L103,188" fill="none" stroke="#647484" stroke-width="3" stroke-dasharray=""/><path d="M47,209 L103,200" fill="none" stroke="#647484" stroke-width="3" stroke-dasharray=""/><path d="M47,221 L103,212" fill="none" stroke="#647484" stroke-width="3" stroke-dasharray=""/><path d="M20,20 L50,0 H100 L130,20 V70 L100,90 H50 L20,70 Z" fill="url(#steel)" stroke="#647484" stroke-width="3"/><path d="M20,20 L65,45" fill="none" stroke="#647484" stroke-width="3" stroke-dasharray=""/><path d="M130,20 L85,45" fill="none" stroke="#647484" stroke-width="3" stroke-dasharray=""/></g><g transform="translate(15,230) scale(0.55)"><circle cx="70" cy="70" r="62" fill="url(#steel)" stroke="#647484" stroke-width="3"/><circle cx="70" cy="70" r="27" fill="#F8FBFF" stroke="#647484" stroke-width="3"/></g><rect x="155" y="75" width="125" height="108" rx="0" fill="#1765CA" stroke="white" stroke-width="2"/><rect x="305" y="75" width="125" height="108" rx="0" fill="#E4EFF9" stroke="white" stroke-width="2"/><rect x="155" y="205" width="125" height="108" rx="0" fill="#E4EFF9" stroke="white" stroke-width="2"/><rect x="305" y="205" width="125" height="108" rx="0" fill="#1765CA" stroke="white" stroke-width="2"/><text x="25" y="360" fill="#153454" font-size="28" font-weight="500" text-anchor="start">每列：影像區域表示</text><text x="25" y="410" fill="#153454" font-size="28" font-weight="500" text-anchor="start">深色：較相似（教學示意）</text></g><text x="24" y="492" fill="#153454" font-size="27" font-weight="650" text-anchor="start">區域特徵與詞彙相互作用</text><text x="24" y="534" fill="#153454" font-size="27" font-weight="650" text-anchor="start">以相似關係產生候選</text></g><path d="M1098,430 L1130,430" fill="none" stroke="#1765CA" stroke-width="5" stroke-dasharray=""/><path d="M1130,430 L1118.2941876694151,435.654551943446 L1118.2941876694151,424.345448056554 Z" fill="#1765CA"/><g transform="translate(1138,150) scale(1)"><rect x="0" y="0" width="510" height="560" rx="18" fill="#F8FBFF" stroke="#C1D8EF" stroke-width="2"/><text x="22" y="47" fill="#153454" font-size="29" font-weight="800" text-anchor="start">交付詞彙對應框</text><g transform="translate(10,68) scale(.94 .90)"><g transform="translate(80,85) scale(1.1)"><rect x="45" y="70" width="60" height="150" rx="7" fill="url(#steel)" stroke="#647484" stroke-width="2"/><path d="M47,89 L103,80" fill="none" stroke="#647484" stroke-width="3" stroke-dasharray=""/><path d="M47,101 L103,92" fill="none" stroke="#647484" stroke-width="3" stroke-dasharray=""/><path d="M47,113 L103,104" fill="none" stroke="#647484" stroke-width="3" stroke-dasharray=""/><path d="M47,125 L103,116" fill="none" stroke="#647484" stroke-width="3" stroke-dasharray=""/><path d="M47,137 L103,128" fill="none" stroke="#647484" stroke-width="3" stroke-dasharray=""/><path d="M47,149 L103,140" fill="none" stroke="#647484" stroke-width="3" stroke-dasharray=""/><path d="M47,161 L103,152" fill="none" stroke="#647484" stroke-width="3" stroke-dasharray=""/><path d="M47,173 L103,164" fill="none" stroke="#647484" stroke-width="3" stroke-dasharray=""/><path d="M47,185 L103,176" fill="none" stroke="#647484" stroke-width="3" stroke-dasharray=""/><path d="M47,197 L103,188" fill="none" stroke="#647484" stroke-width="3" stroke-dasharray=""/><path d="M47,209 L103,200" fill="none" stroke="#647484" stroke-width="3" stroke-dasharray=""/><path d="M47,221 L103,212" fill="none" stroke="#647484" stroke-width="3" stroke-dasharray=""/><path d="M20,20 L50,0 H100 L130,20 V70 L100,90 H50 L20,70 Z" fill="url(#steel)" stroke="#647484" stroke-width="3"/><path d="M20,20 L65,45" fill="none" stroke="#647484" stroke-width="3" stroke-dasharray=""/><path d="M130,20 L85,45" fill="none" stroke="#647484" stroke-width="3" stroke-dasharray=""/></g><g transform="translate(280,205) scale(1)"><circle cx="70" cy="70" r="62" fill="url(#steel)" stroke="#647484" stroke-width="3"/><circle cx="70" cy="70" r="27" fill="#F8FBFF" stroke="#647484" stroke-width="3"/></g><rect x="95" y="70" width="145" height="270" rx="0" fill="none" stroke="#1765CA" stroke-width="2"/><rect x="280" y="200" width="142" height="150" rx="0" fill="none" stroke="#17876B" stroke-width="2"/><text x="100" y="55" fill="#1765CA" font-size="29" font-weight="500" text-anchor="start">螺栓</text><text x="290" y="185" fill="#17876B" font-size="29" font-weight="500" text-anchor="start">墊圈</text><text x="45" y="405" fill="#153454" font-size="27" font-weight="500" text-anchor="start">框／類別／分數；不是mask</text></g><text x="24" y="492" fill="#153454" font-size="27" font-weight="650" text-anchor="start">候選框、類別與分數</text><text x="24" y="534" fill="#153454" font-size="27" font-weight="650" text-anchor="start">不是自由問答或精密mask</text></g><rect x="24" y="805" width="1624" height="110" rx="18" fill="#FFF4CC" stroke="#E9B54A" stroke-width="2"/><text x="45" y="855" fill="#153454" font-size="34" font-weight="800" text-anchor="start">詞彙可變，但現場辨識能力仍需驗證。</text></svg>