<svg xmlns="http://www.w3.org/2000/svg" width="1672" height="941" viewBox="0 0 1672 941"><defs><marker id="a-1769E0" markerWidth="12" markerHeight="12" refX="10" refY="6" orient="auto"><path d="M0,0 L12,6 L0,12 Z" fill="#1769E0"/></marker><marker id="a-00A9C7" markerWidth="12" markerHeight="12" refX="10" refY="6" orient="auto"><path d="M0,0 L12,6 L0,12 Z" fill="#00A9C7"/></marker><marker id="a-F38B00" markerWidth="12" markerHeight="12" refX="10" refY="6" orient="auto"><path d="M0,0 L12,6 L0,12 Z" fill="#F38B00"/></marker><marker id="a-D9485F" markerWidth="12" markerHeight="12" refX="10" refY="6" orient="auto"><path d="M0,0 L12,6 L0,12 Z" fill="#D9485F"/></marker><marker id="a-159A63" markerWidth="12" markerHeight="12" refX="10" refY="6" orient="auto"><path d="M0,0 L12,6 L0,12 Z" fill="#159A63"/></marker></defs><rect width="1672" height="941" fill="#F5F9FF"/><rect width="1672" height="8" fill="#082554"/><rect x="1250" y="33" width="378" height="50" rx="24" fill="#FFFFFF" stroke="#A8C9FF" stroke-width="2"/><text x="1439" y="66" font-family="Segoe UI, Microsoft JhengHei, PingFang TC, Noto Sans TC, sans-serif" font-size="19" font-weight="850" fill="#1769E0" text-anchor="middle">VIDEOMAE · CLIP CONTRACT</text><text x="40" y="108" font-family="Segoe UI, Microsoft JhengHei, PingFang TC, Noto Sans TC, sans-serif" font-size="38" font-weight="900" fill="#071D43" text-anchor="start">先固定一段有時間戳的 clip：事件是否被看見，早在 tubelet 前就決定了一半</text><text x="40" y="153" font-family="Segoe UI, Microsoft JhengHei, PingFang TC, Noto Sans TC, sans-serif" font-size="23" font-weight="550" fill="#506584" text-anchor="start">camera/timestamp、ROI、frame sampling、clip length、stride、overlap 與 tubelet shape 共同決定 encoder 可以接收到哪些時間證據。</text><clipPath id="clip-50-230"><rect x="50" y="230" width="610" height="380" rx="26"/></clipPath><g clip-path="url(#clip-50-230)"><image href="videomae-beginner-01-conveyor-clip_v01.png" x="50" y="230" width="610" height="380" preserveAspectRatio="xMidYMid slice"/></g><rect x="50" y="230" width="610" height="380" rx="26" fill="none" stroke="#1769E0" stroke-width="3"/><text x="355" y="275" font-family="Segoe UI, Microsoft JhengHei, PingFang TC, Noto Sans TC, sans-serif" font-size="28" font-weight="900" fill="#071D43" text-anchor="middle">same conveyor AOI</text><path d="M700 420 L790 420" fill="none" stroke="#1769E0" stroke-width="6" stroke-linecap="round" marker-end="url(#a-1769E0)"/><rect x="820" y="220" width="735" height="500" rx="30" fill="#FFFFFF" stroke="#A8C9FF" stroke-width="2"/><text x="1187" y="290" font-family="Segoe UI, Microsoft JhengHei, PingFang TC, Noto Sans TC, sans-serif" font-size="31" font-weight="900" fill="#071D43" text-anchor="middle">timestamped clip window</text><rect x="875.0" y="355" width="113.8" height="154" rx="16" fill="#EAF3FF" stroke="#1769E0" stroke-width="3"/><rect x="893.0" y="393" width="77.8" height="56" rx="8" fill="#D7E8FF"/><circle cx="931.9" cy="421" r="13" fill="#00A9C7"/><text x="931.9" y="485" font-family="Segoe UI, Microsoft JhengHei, PingFang TC, Noto Sans TC, sans-serif" font-size="20" font-weight="850" fill="#071D43" text-anchor="middle">t0</text><rect x="1002.8" y="355" width="113.8" height="154" rx="16" fill="#EAF3FF" stroke="#1769E0" stroke-width="3"/><rect x="1020.8" y="393" width="77.8" height="56" rx="8" fill="#D7E8FF"/><circle cx="1059.7" cy="421" r="13" fill="#00A9C7"/><text x="1059.7" y="485" font-family="Segoe UI, Microsoft JhengHei, PingFang TC, Noto Sans TC, sans-serif" font-size="20" font-weight="850" fill="#071D43" text-anchor="middle">t1</text><rect x="1130.6" y="355" width="113.8" height="154" rx="16" fill="#EAF3FF" stroke="#1769E0" stroke-width="3"/><rect x="1148.6" y="393" width="77.8" height="56" rx="8" fill="#D7E8FF"/><circle cx="1187.5" cy="421" r="13" fill="#00A9C7"/><text x="1187.5" y="485" font-family="Segoe UI, Microsoft JhengHei, PingFang TC, Noto Sans TC, sans-serif" font-size="20" font-weight="850" fill="#071D43" text-anchor="middle">t2</text><rect x="1258.4" y="355" width="113.8" height="154" rx="16" fill="#FFF7EC" stroke="#F38B00" stroke-width="3"/><rect x="1276.4" y="393" width="77.8" height="56" rx="8" fill="#D7E8FF"/><circle cx="1315.3000000000002" cy="421" r="13" fill="#F38B00"/><text x="1315.3000000000002" y="485" font-family="Segoe UI, Microsoft JhengHei, PingFang TC, Noto Sans TC, sans-serif" font-size="20" font-weight="850" fill="#071D43" text-anchor="middle">t3</text><rect x="1386.2" y="355" width="113.8" height="154" rx="16" fill="#EAF3FF" stroke="#1769E0" stroke-width="3"/><rect x="1404.2" y="393" width="77.8" height="56" rx="8" fill="#D7E8FF"/><circle cx="1443.1000000000001" cy="421" r="13" fill="#00A9C7"/><text x="1443.1000000000001" y="485" font-family="Segoe UI, Microsoft JhengHei, PingFang TC, Noto Sans TC, sans-serif" font-size="20" font-weight="850" fill="#071D43" text-anchor="middle">t4</text><text x="1187" y="565" font-family="Segoe UI, Microsoft JhengHei, PingFang TC, Noto Sans TC, sans-serif" font-size="25" font-weight="800" fill="#506584" text-anchor="middle">declared clip length · stride · overlap</text><rect x="930" y="610" width="515" height="62" rx="18" fill="#FFF7EC" stroke="#F38B00" stroke-width="2"/><text x="1187" y="650" font-family="Segoe UI, Microsoft JhengHei, PingFang TC, Noto Sans TC, sans-serif" font-size="20" font-weight="850" fill="#774C00" text-anchor="middle">orange = a brief target event; coverage must be measured</text><rect x="40" y="850" width="1592" height="50" rx="18" fill="#FFF6D7" stroke="#E5AF2C" stroke-width="2"/><text x="836" y="883" font-family="Segoe UI, Microsoft JhengHei, PingFang TC, Noto Sans TC, sans-serif" font-size="20" font-weight="800" fill="#674500" text-anchor="middle">帶走：VideoMAE 的第一個工程問題不是 reconstruction loss，而是 clip、sampling 與 tubelet 是否真的覆蓋目標事件。</text></svg>