<svg xmlns="http://www.w3.org/2000/svg" width="1672" height="941" viewBox="0 0 1672 941" role="img" aria-labelledby="title desc"><title id="title">DRAEM：reconstruction branch 加 joint discriminative segmentation</title><desc id="desc">corrupted I_a 經 reconstruction 成 I_r，I_a 與 I_r 一起進 joint discriminator，由 synthetic M_a 監督 segmentation；不是純 Autoencoder raw residual。</desc><defs><marker id="arrow-1769E0" viewBox="0 0 10 10" refX="8" refY="5" markerWidth="7" markerHeight="7" orient="auto"><path d="M0 0 L10 5 L0 10 z" fill="#1769E0"/></marker><marker id="arrow-00A8C6" viewBox="0 0 10 10" refX="8" refY="5" markerWidth="7" markerHeight="7" orient="auto"><path d="M0 0 L10 5 L0 10 z" fill="#00A8C6"/></marker><marker id="arrow-8254E3" viewBox="0 0 10 10" refX="8" refY="5" markerWidth="7" markerHeight="7" orient="auto"><path d="M0 0 L10 5 L0 10 z" fill="#8254E3"/></marker><marker id="arrow-F38B00" viewBox="0 0 10 10" refX="8" refY="5" markerWidth="7" markerHeight="7" orient="auto"><path d="M0 0 L10 5 L0 10 z" fill="#F38B00"/></marker><marker id="arrow-D9485F" viewBox="0 0 10 10" refX="8" refY="5" markerWidth="7" markerHeight="7" orient="auto"><path d="M0 0 L10 5 L0 10 z" fill="#D9485F"/></marker><marker id="arrow-149A62" viewBox="0 0 10 10" refX="8" refY="5" markerWidth="7" markerHeight="7" orient="auto"><path d="M0 0 L10 5 L0 10 z" fill="#149A62"/></marker></defs><rect width="1672" height="941" fill="#F5F9FF"/><rect width="1672" height="8" fill="#0A2A5B"/><rect x="40" y="30" width="210" height="44" rx="22" fill="#F3EEFF" stroke="#8254E3" stroke-width="2"/><text x="145" y="59.0" font-family="Segoe UI, Microsoft JhengHei, PingFang TC, Noto Sans TC, sans-serif" font-size="18" font-weight="900" fill="#8254E3" text-anchor="middle">模型因果</text><rect x="1320" y="30" width="312" height="44" rx="22" fill="#FFFFFF" stroke="#9FC4FF" stroke-width="2"/><text x="1476" y="59.0" font-family="Segoe UI, Microsoft JhengHei, PingFang TC, Noto Sans TC, sans-serif" font-size="19" font-weight="900" fill="#8254E3" text-anchor="middle">DRAEM</text><text x="40" y="123.0" font-family="Segoe UI, Microsoft JhengHei, PingFang TC, Noto Sans TC, sans-serif" font-size="38" font-weight="900" fill="#081A38" text-anchor="start">DRAEM 不只做 residual：它讓原圖與 reconstruction 一起進辨別式 segmentation</text><text x="40" y="166.0" font-family="Segoe UI, Microsoft JhengHei, PingFang TC, Noto Sans TC, sans-serif" font-size="21" font-weight="600" fill="#536A91" text-anchor="start">訓練時 Iₐ 先經 reconstruction branch，再和 Iₐ 共同進 joint discriminator 以 Mₐ 監督；不是單純計算 |Iₐ−Iᵣ|。</text><g data-entity="draem_synthetic_training_corruption"><clipPath id="synthetic-joint-58-270"><rect x="58" y="270" width="300" height="265" rx="18"/></clipPath><g clip-path="url(#synthetic-joint-58-270)"><image href="draem-industrial-carrier-anchor_v02.png" x="58" y="270" width="300" height="265" preserveAspectRatio="xMidYMid slice"/><path d="M124.0 330.95 C187.0 277.95, 265.0 341.55, 277.0 399.85 C298.0 460.79999999999995, 193.0 497.9, 127.0 442.25 C79.0 399.85, 85.0 360.1, 124.0 330.95Z" fill="#D75CEC" fill-opacity=".54" stroke="#F38B00" stroke-width="4"/><path d="M130.0 362.75 L166.0 455.5" fill="none" stroke="#FFE38D" stroke-width="3" stroke-linecap="round"/><path d="M154.0 362.75 L190.0 455.5" fill="none" stroke="#FFE38D" stroke-width="3" stroke-linecap="round"/><path d="M178.0 362.75 L214.0 455.5" fill="none" stroke="#FFE38D" stroke-width="3" stroke-linecap="round"/><path d="M202.0 362.75 L238.0 455.5" fill="none" stroke="#FFE38D" stroke-width="3" stroke-linecap="round"/><path d="M226.0 362.75 L262.0 455.5" fill="none" stroke="#FFE38D" stroke-width="3" stroke-linecap="round"/></g><rect x="58" y="270" width="300" height="265" rx="18" fill="none" stroke="#8254E3" stroke-width="3"/><rect x="70" y="282" width="128" height="30" rx="15" fill="#8254E3" stroke="#8254E3" stroke-width="1"/><text x="134" y="303.0" font-family="Segoe UI, Microsoft JhengHei, PingFang TC, Noto Sans TC, sans-serif" font-size="18" font-weight="900" fill="#FFFFFF" text-anchor="middle">SYNTHETIC</text><text x="208.0" y="563.0" font-family="Segoe UI, Microsoft JhengHei, PingFang TC, Noto Sans TC, sans-serif" font-size="18" font-weight="900" fill="#8254E3" text-anchor="middle">Iₐ · training exercise</text></g><path d="M380 402 L452 402" fill="none" stroke="#00A8C6" stroke-width="6" stroke-linecap="round" marker-end="url(#arrow-00A8C6)"/><g data-entity="draem_reconstruction_branch"><rect x="475" y="268" width="292" height="210" rx="20" fill="#E7FBFE" stroke="#00A8C6" stroke-width="3"/><text x="621.0" y="302.0" font-family="Segoe UI, Microsoft JhengHei, PingFang TC, Noto Sans TC, sans-serif" font-size="18" font-weight="900" fill="#081A38" text-anchor="middle">reconstruction Iᵣ</text><text x="621.0" y="327.0" font-family="Segoe UI, Microsoft JhengHei, PingFang TC, Noto Sans TC, sans-serif" font-size="18" font-weight="800" fill="#D9485F" text-anchor="middle">not ground truth</text><rect x="497" y="346" width="248" height="105" rx="12" fill="#C8D5E4" stroke="#87BBD3" stroke-width="2"/><rect x="505.0" y="353.0" width="44.4" height="43.5" rx="4" fill="#B8CADF" stroke="none" stroke-width="0"/><rect x="551.4" y="353.0" width="44.4" height="43.5" rx="4" fill="#DDE8F4" stroke="none" stroke-width="0"/><rect x="597.8" y="353.0" width="44.4" height="43.5" rx="4" fill="#B8CADF" stroke="none" stroke-width="0"/><rect x="644.2" y="353.0" width="44.4" height="43.5" rx="4" fill="#DDE8F4" stroke="none" stroke-width="0"/><rect x="690.6" y="353.0" width="44.4" height="43.5" rx="4" fill="#B8CADF" stroke="none" stroke-width="0"/><rect x="505.0" y="398.5" width="44.4" height="43.5" rx="4" fill="#DDE8F4" stroke="none" stroke-width="0"/><rect x="551.4" y="398.5" width="44.4" height="43.5" rx="4" fill="#B8CADF" stroke="none" stroke-width="0"/><rect x="597.8" y="398.5" width="44.4" height="43.5" rx="4" fill="#DDE8F4" stroke="none" stroke-width="0"/><rect x="644.2" y="398.5" width="44.4" height="43.5" rx="4" fill="#B8CADF" stroke="none" stroke-width="0"/><rect x="690.6" y="398.5" width="44.4" height="43.5" rx="4" fill="#DDE8F4" stroke="none" stroke-width="0"/></g><text x="621" y="517.0" font-family="Segoe UI, Microsoft JhengHei, PingFang TC, Noto Sans TC, sans-serif" font-size="20" font-weight="900" fill="#00A8C6" text-anchor="middle">reconstruction branch</text><path d="M791 355 L870 355" fill="none" stroke="#1769E0" stroke-width="5" stroke-linecap="round" marker-end="url(#arrow-1769E0)"/><path d="M380 459 L870 459" fill="none" stroke="#8254E3" stroke-width="5" stroke-linecap="round" marker-end="url(#arrow-8254E3)"/><rect x="895" y="245" width="396" height="320" rx="28" fill="#EAF4FF" stroke="#1769E0" stroke-width="3"/><text x="1093" y="294.0" font-family="Segoe UI, Microsoft JhengHei, PingFang TC, Noto Sans TC, sans-serif" font-size="29" font-weight="900" fill="#081A38" text-anchor="middle">joint embedding</text><text x="1093" y="328.0" font-family="Segoe UI, Microsoft JhengHei, PingFang TC, Noto Sans TC, sans-serif" font-size="19" font-weight="850" fill="#1769E0" text-anchor="middle">concat / compare Iₐ + Iᵣ</text><rect x="963" y="365" width="27" height="22" rx="5" fill="#C9DDF7" stroke="#1769E0" stroke-width="1"/><rect x="998" y="365" width="27" height="22" rx="5" fill="#C9DDF7" stroke="#1769E0" stroke-width="1"/><rect x="1033" y="365" width="27" height="22" rx="5" fill="#C9DDF7" stroke="#1769E0" stroke-width="1"/><rect x="1068" y="365" width="27" height="22" rx="5" fill="#C9DDF7" stroke="#1769E0" stroke-width="1"/><rect x="1103" y="365" width="27" height="22" rx="5" fill="#C9DDF7" stroke="#1769E0" stroke-width="1"/><rect x="1138" y="365" width="27" height="22" rx="5" fill="#C9DDF7" stroke="#1769E0" stroke-width="1"/><rect x="1173" y="365" width="27" height="22" rx="5" fill="#C9DDF7" stroke="#1769E0" stroke-width="1"/><rect x="963" y="396" width="27" height="22" rx="5" fill="#C9DDF7" stroke="#1769E0" stroke-width="1"/><rect x="998" y="396" width="27" height="22" rx="5" fill="#C9DDF7" stroke="#1769E0" stroke-width="1"/><rect x="1033" y="396" width="27" height="22" rx="5" fill="#C9DDF7" stroke="#1769E0" stroke-width="1"/><rect x="1068" y="396" width="27" height="22" rx="5" fill="#C9DDF7" stroke="#1769E0" stroke-width="1"/><rect x="1103" y="396" width="27" height="22" rx="5" fill="#8254E3" fill-opacity="0.62" stroke="#8254E3" stroke-width="1"/><rect x="1138" y="396" width="27" height="22" rx="5" fill="#C9DDF7" stroke="#1769E0" stroke-width="1"/><rect x="1173" y="396" width="27" height="22" rx="5" fill="#C9DDF7" stroke="#1769E0" stroke-width="1"/><rect x="963" y="427" width="27" height="22" rx="5" fill="#C9DDF7" stroke="#1769E0" stroke-width="1"/><rect x="998" y="427" width="27" height="22" rx="5" fill="#C9DDF7" stroke="#1769E0" stroke-width="1"/><rect x="1033" y="427" width="27" height="22" rx="5" fill="#C9DDF7" stroke="#1769E0" stroke-width="1"/><rect x="1068" y="427" width="27" height="22" rx="5" fill="#C9DDF7" stroke="#1769E0" stroke-width="1"/><rect x="1103" y="427" width="27" height="22" rx="5" fill="#8254E3" fill-opacity="0.62" stroke="#8254E3" stroke-width="1"/><rect x="1138" y="427" width="27" height="22" rx="5" fill="#8254E3" fill-opacity="0.62" stroke="#8254E3" stroke-width="1"/><rect x="1173" y="427" width="27" height="22" rx="5" fill="#C9DDF7" stroke="#1769E0" stroke-width="1"/><rect x="963" y="458" width="27" height="22" rx="5" fill="#C9DDF7" stroke="#1769E0" stroke-width="1"/><rect x="998" y="458" width="27" height="22" rx="5" fill="#C9DDF7" stroke="#1769E0" stroke-width="1"/><rect x="1033" y="458" width="27" height="22" rx="5" fill="#C9DDF7" stroke="#1769E0" stroke-width="1"/><rect x="1068" y="458" width="27" height="22" rx="5" fill="#C9DDF7" stroke="#1769E0" stroke-width="1"/><rect x="1103" y="458" width="27" height="22" rx="5" fill="#C9DDF7" stroke="#1769E0" stroke-width="1"/><rect x="1138" y="458" width="27" height="22" rx="5" fill="#C9DDF7" stroke="#1769E0" stroke-width="1"/><rect x="1173" y="458" width="27" height="22" rx="5" fill="#C9DDF7" stroke="#1769E0" stroke-width="1"/><text x="1093" y="530.0" font-family="Segoe UI, Microsoft JhengHei, PingFang TC, Noto Sans TC, sans-serif" font-size="20" font-weight="900" fill="#8254E3" text-anchor="middle">discriminative segmentation</text><path d="M1315 405 L1371 405" fill="none" stroke="#F38B00" stroke-width="5" stroke-linecap="round" marker-end="url(#arrow-F38B00)"/><g data-entity="draem_joint_discriminative_segmentation"><rect x="1392" y="282" width="198" height="238" rx="21" fill="#EAF4FF" stroke="#1769E0" stroke-width="3"/><text x="1491.0" y="310" font-family="Segoe UI, Microsoft JhengHei, PingFang TC, Noto Sans TC, sans-serif" font-size="18" font-weight="900" fill="#081A38" text-anchor="middle">joint</text><text x="1491.0" y="332" font-family="Segoe UI, Microsoft JhengHei, PingFang TC, Noto Sans TC, sans-serif" font-size="18" font-weight="900" fill="#081A38" text-anchor="middle">segmenter</text><rect x="1412.0" y="352.0" width="29.0" height="41.333333333333336" rx="5" fill="#B9D5F7" stroke="#1769E0" stroke-width="1"/><rect x="1443.6" y="352.0" width="29.0" height="41.333333333333336" rx="5" fill="#B9D5F7" stroke="#1769E0" stroke-width="1"/><rect x="1475.2" y="352.0" width="29.0" height="41.333333333333336" rx="5" fill="#B9D5F7" stroke="#1769E0" stroke-width="1"/><rect x="1506.8" y="352.0" width="29.0" height="41.333333333333336" rx="5" fill="#8254E3" fill-opacity="0.65" stroke="#8254E3" stroke-width="1"/><rect x="1538.4" y="352.0" width="29.0" height="41.333333333333336" rx="5" fill="#B9D5F7" stroke="#1769E0" stroke-width="1"/><rect x="1412.0" y="398.3333333333333" width="29.0" height="41.333333333333336" rx="5" fill="#B9D5F7" stroke="#1769E0" stroke-width="1"/><rect x="1443.6" y="398.3333333333333" width="29.0" height="41.333333333333336" rx="5" fill="#B9D5F7" stroke="#1769E0" stroke-width="1"/><rect x="1475.2" y="398.3333333333333" width="29.0" height="41.333333333333336" rx="5" fill="#B9D5F7" stroke="#1769E0" stroke-width="1"/><rect x="1506.8" y="398.3333333333333" width="29.0" height="41.333333333333336" rx="5" fill="#B9D5F7" stroke="#1769E0" stroke-width="1"/><rect x="1538.4" y="398.3333333333333" width="29.0" height="41.333333333333336" rx="5" fill="#B9D5F7" stroke="#1769E0" stroke-width="1"/><rect x="1412.0" y="444.6666666666667" width="29.0" height="41.333333333333336" rx="5" fill="#B9D5F7" stroke="#1769E0" stroke-width="1"/><rect x="1443.6" y="444.6666666666667" width="29.0" height="41.333333333333336" rx="5" fill="#B9D5F7" stroke="#1769E0" stroke-width="1"/><rect x="1475.2" y="444.6666666666667" width="29.0" height="41.333333333333336" rx="5" fill="#B9D5F7" stroke="#1769E0" stroke-width="1"/><rect x="1506.8" y="444.6666666666667" width="29.0" height="41.333333333333336" rx="5" fill="#8254E3" fill-opacity="0.65" stroke="#8254E3" stroke-width="1"/><rect x="1538.4" y="444.6666666666667" width="29.0" height="41.333333333333336" rx="5" fill="#B9D5F7" stroke="#1769E0" stroke-width="1"/><text x="1491.0" y="510.0" font-family="Segoe UI, Microsoft JhengHei, PingFang TC, Noto Sans TC, sans-serif" font-size="18" font-weight="900" fill="#8254E3" text-anchor="middle">Mₐ trains</text></g><g data-entity="draem_synthetic_mask_training_label"><rect x="1372" y="602" width="230" height="102" rx="18" fill="#F3EEFF" stroke="#8254E3" stroke-width="3"/><text x="1487.0" y="631.0" font-family="Segoe UI, Microsoft JhengHei, PingFang TC, Noto Sans TC, sans-serif" font-size="18" font-weight="900" fill="#8254E3" text-anchor="middle">Mₐ synthetic mask</text><rect x="1388.0" y="648.0" width="36.8" height="8" rx="5" fill="#DCE8FA" stroke="#1769E0" stroke-width="1"/><rect x="1427.6" y="648.0" width="36.8" height="8" rx="5" fill="#DCE8FA" stroke="#1769E0" stroke-width="1"/><rect x="1467.2" y="648.0" width="36.8" height="8" rx="5" fill="#F38B00" fill-opacity="0.55" stroke="#F38B00" stroke-width="1"/><rect x="1506.8" y="648.0" width="36.8" height="8" rx="5" fill="#DCE8FA" stroke="#1769E0" stroke-width="1"/><rect x="1546.4" y="648.0" width="36.8" height="8" rx="5" fill="#DCE8FA" stroke="#1769E0" stroke-width="1"/><rect x="1388.0" y="656.0" width="36.8" height="8" rx="5" fill="#DCE8FA" stroke="#1769E0" stroke-width="1"/><rect x="1427.6" y="656.0" width="36.8" height="8" rx="5" fill="#DCE8FA" stroke="#1769E0" stroke-width="1"/><rect x="1467.2" y="656.0" width="36.8" height="8" rx="5" fill="#F38B00" fill-opacity="0.55" stroke="#F38B00" stroke-width="1"/><rect x="1506.8" y="656.0" width="36.8" height="8" rx="5" fill="#F38B00" fill-opacity="0.55" stroke="#F38B00" stroke-width="1"/><rect x="1546.4" y="656.0" width="36.8" height="8" rx="5" fill="#DCE8FA" stroke="#1769E0" stroke-width="1"/><rect x="1388.0" y="664.0" width="36.8" height="8" rx="5" fill="#DCE8FA" stroke="#1769E0" stroke-width="1"/><rect x="1427.6" y="664.0" width="36.8" height="8" rx="5" fill="#DCE8FA" stroke="#1769E0" stroke-width="1"/><rect x="1467.2" y="664.0" width="36.8" height="8" rx="5" fill="#DCE8FA" stroke="#1769E0" stroke-width="1"/><rect x="1506.8" y="664.0" width="36.8" height="8" rx="5" fill="#F38B00" fill-opacity="0.55" stroke="#F38B00" stroke-width="1"/><rect x="1546.4" y="664.0" width="36.8" height="8" rx="5" fill="#DCE8FA" stroke="#1769E0" stroke-width="1"/><text x="1487.0" y="696.0" font-family="Segoe UI, Microsoft JhengHei, PingFang TC, Noto Sans TC, sans-serif" font-size="18" font-weight="900" fill="#D9485F" text-anchor="middle">TRAINING ONLY</text></g><path d="M1487 589 L1487 530" fill="none" stroke="#8254E3" stroke-width="4" stroke-linecap="round" marker-end="url(#arrow-8254E3)" stroke-dasharray="6 5"/><rect x="60" y="740" width="1525" height="74" rx="22" fill="#FFFFFF" stroke="#9FC4FF" stroke-width="2"/><text x="90" y="777.0" font-family="Segoe UI, Microsoft JhengHei, PingFang TC, Noto Sans TC, sans-serif" font-size="21" font-weight="850" fill="#081A38" text-anchor="start">這張圖回答的不是『重建得多漂亮』，而是『joint discriminator 是否從合成監督學到可轉移的異常線索』。</text><text x="90" y="804.0" font-family="Segoe UI, Microsoft JhengHei, PingFang TC, Noto Sans TC, sans-serif" font-size="18" font-weight="850" fill="#D9485F" text-anchor="start">M_pred 是 candidate map，不是 raw residual、native defect mask、defect probability 或 PASS。</text><rect x="40" y="850" width="1592" height="50" rx="18" fill="#FFF5D4" stroke="#E4AA1D" stroke-width="2"/><circle cx="79" cy="875" r="12" fill="#FFE295" stroke="#C98700" stroke-width="2"/><text x="79" y="882.0" font-family="Segoe UI, Microsoft JhengHei, PingFang TC, Noto Sans TC, sans-serif" font-size="18" font-weight="900" fill="#805300" text-anchor="middle">!</text><text x="110" y="883.0" font-family="Segoe UI, Microsoft JhengHei, PingFang TC, Noto Sans TC, sans-serif" font-size="18" font-weight="800" fill="#654600" text-anchor="start">若把 DRAEM 簡化成純 AE residual，就會遺漏 synthetic supervision 與 discriminative segmentation 這兩個模型身分。</text></svg>